<svg xmlns="http://www.w3.org/2000/svg" viewBox="0 0 760 880" width="760" height="880" font-family="system-ui,sans-serif">
<rect width="100%" height="100%" fill="#F5F4F0"/>
<text x="380.0" y="30" text-anchor="middle" fill="#1E293B" font-size="18" font-weight="700">KMP Impact . io.ktor</text>
<text x="380.0" y="52" text-anchor="middle" fill="#64748b" font-size="12">2.3.10 -&gt; 2.3.13 . 90 archivos</text>
<path d="M 380.00 350.00 A 100.00 100.00 0 1 1 280.92 436.49 L 310.64 440.54 A 70.00 70.00 0 1 0 380.00 380.00 Z" fill="#B91C1C" fill-opacity="1"/>
<path d="M 380.00 318.00 A 132.00 132.00 0 1 1 264.31 513.55 L 290.60 499.11 A 102.00 102.00 0 1 0 380.00 348.00 Z" fill="#B91C1C" fill-opacity="1"/>
<path d="M 380.00 286.00 A 164.00 164.00 0 1 1 236.26 528.96 L 262.55 514.52 A 134.00 134.00 0 1 0 380.00 316.00 Z" fill="#B91C1C" fill-opacity="1"/>
<path d="M 380.00 254.00 A 196.00 196.00 0 1 1 208.21 544.37 L 234.51 529.92 A 166.00 166.00 0 1 0 380.00 284.00 Z" fill="#B91C1C" fill-opacity="1"/>
<path d="M 380.00 222.00 A 228.00 228.00 0 0 1 568.43 578.37 L 543.64 561.48 A 198.00 198.00 0 0 0 380.00 252.00 Z" fill="#60A5FA" fill-opacity="1"/>
<path d="M 568.43 578.37 A 228.00 228.00 0 0 1 219.42 611.86 L 240.55 590.56 A 198.00 198.00 0 0 0 543.64 561.48 Z" fill="#B91C1C" fill-opacity="1"/>
<path d="M 219.42 611.86 A 228.00 228.00 0 0 1 180.17 559.78 L 206.46 545.33 A 198.00 198.00 0 0 0 240.55 590.56 Z" fill="#1D4ED8" fill-opacity="1"/>
<path d="M 264.31 513.55 A 132.00 132.00 0 0 1 250.21 474.07 L 279.71 468.60 A 102.00 102.00 0 0 0 290.60 499.11 Z" fill="#B91C1C" fill-opacity="1"/>
<path d="M 250.21 474.07 A 132.00 132.00 0 0 1 248.04 453.16 L 278.03 452.44 A 102.00 102.00 0 0 0 279.71 468.60 Z" fill="#1D4ED8" fill-opacity="1"/>
<path d="M 248.04 453.16 A 132.00 132.00 0 0 1 249.21 432.16 L 278.94 436.22 A 102.00 102.00 0 0 0 278.03 452.44 Z" fill="#1D4ED8" fill-opacity="1"/>
<path d="M 280.92 436.49 A 100.00 100.00 0 0 1 298.26 392.39 L 322.78 409.67 A 70.00 70.00 0 0 0 310.64 440.54 Z" fill="#B91C1C" fill-opacity="1"/>
<path d="M 249.21 432.16 A 132.00 132.00 0 0 1 272.11 373.95 L 296.63 391.24 A 102.00 102.00 0 0 0 278.94 436.22 Z" fill="#B91C1C" fill-opacity="1"/>
<path d="M 217.50 427.84 A 164.00 164.00 0 0 1 245.95 355.52 L 270.47 372.80 A 134.00 134.00 0 0 0 247.23 431.89 Z" fill="#B91C1C" fill-opacity="1"/>
<path d="M 185.80 423.51 A 196.00 196.00 0 0 1 219.80 337.08 L 244.32 354.37 A 166.00 166.00 0 0 0 215.52 427.57 Z" fill="#B91C1C" fill-opacity="1"/>
<path d="M 154.09 419.19 A 228.00 228.00 0 0 1 175.15 349.91 L 202.10 363.08 A 198.00 198.00 0 0 0 183.82 423.24 Z" fill="#B91C1C" fill-opacity="1"/>
<path d="M 175.15 349.91 A 228.00 228.00 0 0 1 185.65 330.79 L 211.22 346.48 A 198.00 198.00 0 0 0 202.10 363.08 Z" fill="#60A5FA" fill-opacity="1"/>
<path d="M 185.65 330.79 A 228.00 228.00 0 0 1 193.64 318.65 L 218.16 335.93 A 198.00 198.00 0 0 0 211.22 346.48 Z" fill="#60A5FA" fill-opacity="1"/>
<path d="M 298.26 392.39 A 100.00 100.00 0 0 1 325.69 366.03 L 341.98 391.22 A 70.00 70.00 0 0 0 322.78 409.67 Z" fill="#B91C1C" fill-opacity="1"/>
<path d="M 272.11 373.95 A 132.00 132.00 0 0 1 308.31 339.16 L 324.61 364.35 A 102.00 102.00 0 0 0 296.63 391.24 Z" fill="#B91C1C" fill-opacity="1"/>
<path d="M 245.95 355.52 A 164.00 164.00 0 0 1 290.94 312.29 L 307.23 337.48 A 134.00 134.00 0 0 0 270.47 372.80 Z" fill="#B91C1C" fill-opacity="1"/>
<path d="M 219.80 337.08 A 196.00 196.00 0 0 1 273.56 285.42 L 289.85 310.61 A 166.00 166.00 0 0 0 244.32 354.37 Z" fill="#B91C1C" fill-opacity="1"/>
<path d="M 193.64 318.65 A 228.00 228.00 0 0 1 244.23 266.83 L 262.09 290.94 A 198.00 198.00 0 0 0 218.16 335.93 Z" fill="#B91C1C" fill-opacity="1"/>
<path d="M 244.23 266.83 A 228.00 228.00 0 0 1 256.18 258.55 L 272.47 283.74 A 198.00 198.00 0 0 0 262.09 290.94 Z" fill="#60A5FA" fill-opacity="1"/>
<path d="M 325.69 366.03 A 100.00 100.00 0 0 1 360.98 351.83 L 366.69 381.28 A 70.00 70.00 0 0 0 341.98 391.22 Z" fill="#B91C1C" fill-opacity="1"/>
<path d="M 308.31 339.16 A 132.00 132.00 0 0 1 354.89 320.41 L 360.60 349.86 A 102.00 102.00 0 0 0 324.61 364.35 Z" fill="#B91C1C" fill-opacity="1"/>
<path d="M 290.94 312.29 A 164.00 164.00 0 0 1 338.61 291.31 L 346.18 320.34 A 134.00 134.00 0 0 0 307.23 337.48 Z" fill="#B91C1C" fill-opacity="1"/>
<path d="M 273.56 285.42 A 196.00 196.00 0 0 1 330.53 260.35 L 338.10 289.37 A 166.00 166.00 0 0 0 289.85 310.61 Z" fill="#B91C1C" fill-opacity="1"/>
<path d="M 256.18 258.55 A 228.00 228.00 0 0 1 322.45 229.38 L 330.03 258.41 A 198.00 198.00 0 0 0 272.47 283.74 Z" fill="#B91C1C" fill-opacity="1" stroke="#64748B" stroke-width="1.5" stroke-dasharray="3,2"/>
<path d="M 338.61 291.31 A 164.00 164.00 0 0 1 348.81 288.99 L 354.51 318.45 A 134.00 134.00 0 0 0 346.18 320.34 Z" fill="#60A5FA" fill-opacity="1"/>
<path d="M 330.53 260.35 A 196.00 196.00 0 0 1 342.72 257.58 L 348.43 287.03 A 166.00 166.00 0 0 0 338.10 289.37 Z" fill="#60A5FA" fill-opacity="1"/>
<path d="M 360.98 351.83 A 100.00 100.00 0 0 1 370.45 350.46 L 373.31 380.32 A 70.00 70.00 0 0 0 366.69 381.28 Z" fill="#60A5FA" fill-opacity="1"/>
<path d="M 354.89 320.41 A 132.00 132.00 0 0 1 367.39 318.60 L 370.26 348.47 A 102.00 102.00 0 0 0 360.60 349.86 Z" fill="#60A5FA" fill-opacity="1"/>
<path d="M 370.45 350.46 A 100.00 100.00 0 0 1 380.00 350.00 L 380.00 380.00 A 70.00 70.00 0 0 0 373.31 380.32 Z" fill="#60A5FA" fill-opacity="1"/>
<path d="M 367.39 318.60 A 132.00 132.00 0 0 1 380.00 318.00 L 380.00 348.00 A 102.00 102.00 0 0 0 370.26 348.47 Z" fill="#60A5FA" fill-opacity="1"/>
<path d="M 364.33 286.75 A 164.00 164.00 0 0 1 380.00 286.00 L 380.00 316.00 A 134.00 134.00 0 0 0 367.20 316.61 Z" fill="#60A5FA" fill-opacity="1"/>
<path d="M 361.27 254.90 A 196.00 196.00 0 0 1 380.00 254.00 L 380.00 284.00 A 166.00 166.00 0 0 0 364.14 284.76 Z" fill="#60A5FA" fill-opacity="1"/>
<path d="M 358.22 223.04 A 228.00 228.00 0 0 1 380.00 222.00 L 380.00 252.00 A 198.00 198.00 0 0 0 361.08 252.91 Z" fill="#60A5FA" fill-opacity="1"/>
<text x="435.9" y="514.0" text-anchor="middle" dominant-baseline="middle" transform="rotate(48.9 435.9 514.0)" font-size="11" font-weight="700" fill="#FFFFFF">commonMain</text>
<text x="480.7" y="509.6" text-anchor="middle" dominant-baseline="middle" transform="rotate(30.6 480.7 509.6)" font-size="11" font-weight="700" fill="#FFFFFF">com</text>
<text x="508.2" y="525.9" text-anchor="middle" dominant-baseline="middle" transform="rotate(30.6 508.2 525.9)" font-size="11" font-weight="700" fill="#FFFFFF">mocoding</text>
<text x="535.8" y="542.2" text-anchor="middle" dominant-baseline="middle" transform="rotate(30.6 535.8 542.2)" font-size="11" font-weight="700" fill="#FFFFFF">pokedex</text>
<text x="568.3" y="350.4" text-anchor="middle" dominant-baseline="middle" transform="rotate(-27.9 568.3 350.4)" font-size="11" font-weight="700" fill="#1E293B">ui</text>
<text x="391.7" y="206.3" text-anchor="start" dominant-baseline="middle" transform="rotate(-87.3 391.7 206.3)" font-size="10" font-weight="600" fill="#60A5FA" opacity="0.85">MainContent</text>
<text x="411.0" y="208.0" text-anchor="start" dominant-baseline="middle" transform="rotate(-82.7 411.0 208.0)" font-size="10" font-weight="600" fill="#60A5FA" opacity="0.85">CategoryButton</text>
<text x="434.0" y="212.1" text-anchor="start" dominant-baseline="middle" transform="rotate(-77.2 434.0 212.1)" font-size="10" font-weight="600" fill="#60A5FA" opacity="0.85">MainComponent</text>
<text x="463.9" y="220.9" text-anchor="start" dominant-baseline="middle" transform="rotate(-69.9 463.9 220.9)" font-size="10" font-weight="600" fill="#60A5FA" opacity="0.85">MainStoreFactory</text>
<text x="488.9" y="231.6" text-anchor="start" dominant-baseline="middle" transform="rotate(-63.5 488.9 231.6)" font-size="10" font-weight="600" fill="#60A5FA" opacity="0.85">MainScreen</text>
<text x="505.9" y="241.0" text-anchor="start" dominant-baseline="middle" transform="rotate(-58.9 505.9 241.0)" font-size="10" font-weight="600" fill="#60A5FA" opacity="0.85">CategoryState</text>
<text x="522.2" y="251.7" text-anchor="start" dominant-baseline="middle" transform="rotate(-54.4 522.2 251.7)" font-size="10" font-weight="600" fill="#60A5FA" opacity="0.85">PokedexContent</text>
<text x="537.5" y="263.6" text-anchor="start" dominant-baseline="middle" transform="rotate(-49.8 537.5 263.6)" font-size="10" font-weight="600" fill="#60A5FA" opacity="0.85">PokemonItem</text>
<text x="554.6" y="279.5" text-anchor="start" dominant-baseline="middle" transform="rotate(-44.3 554.6 279.5)" font-size="10" font-weight="600" fill="#60A5FA" opacity="0.85">PokedexComponent</text>
<text x="574.9" y="303.1" text-anchor="start" dominant-baseline="middle" transform="rotate(-37.0 574.9 303.1)" font-size="10" font-weight="600" fill="#60A5FA" opacity="0.85">PokedexStoreFacto.</text>
<text x="590.0" y="325.8" text-anchor="start" dominant-baseline="middle" transform="rotate(-30.6 590.0 325.8)" font-size="10" font-weight="600" fill="#60A5FA" opacity="0.85">PokedexScreen</text>
<text x="600.9" y="346.4" text-anchor="start" dominant-baseline="middle" transform="rotate(-25.1 600.9 346.4)" font-size="10" font-weight="600" fill="#60A5FA" opacity="0.85">DetailsContent</text>
<text x="608.5" y="364.3" text-anchor="start" dominant-baseline="middle" transform="rotate(-20.6 608.5 364.3)" font-size="10" font-weight="600" fill="#60A5FA" opacity="0.85">AbilityRow</text>
<text x="615.6" y="386.5" text-anchor="start" dominant-baseline="middle" transform="rotate(-15.1 615.6 386.5)" font-size="10" font-weight="600" fill="#60A5FA" opacity="0.85">DetailsStoreFacto.</text>
<text x="621.2" y="413.2" text-anchor="start" dominant-baseline="middle" transform="rotate(-8.7 621.2 413.2)" font-size="10" font-weight="600" fill="#60A5FA" opacity="0.85">DetailsComponent</text>
<text x="623.4" y="432.5" text-anchor="start" dominant-baseline="middle" transform="rotate(-4.1 623.4 432.5)" font-size="10" font-weight="600" fill="#60A5FA" opacity="0.85">DetailsScreen</text>
<text x="623.9" y="455.8" text-anchor="start" dominant-baseline="middle" transform="rotate(1.4 623.9 455.8)" font-size="10" font-weight="600" fill="#60A5FA" opacity="0.85">FavoriteStoreFact.</text>
<text x="621.8" y="483.0" text-anchor="start" dominant-baseline="middle" transform="rotate(7.8 621.8 483.0)" font-size="10" font-weight="600" fill="#60A5FA" opacity="0.85">FavoriteComponent</text>
<text x="617.5" y="505.9" text-anchor="start" dominant-baseline="middle" transform="rotate(13.2 617.5 505.9)" font-size="10" font-weight="600" fill="#60A5FA" opacity="0.85">FavoriteContent</text>
<text x="612.3" y="524.7" text-anchor="start" dominant-baseline="middle" transform="rotate(17.8 612.3 524.7)" font-size="10" font-weight="600" fill="#60A5FA" opacity="0.85">FavoriteScreen</text>
<text x="605.6" y="542.9" text-anchor="start" dominant-baseline="middle" transform="rotate(22.4 605.6 542.9)" font-size="10" font-weight="600" fill="#60A5FA" opacity="0.85">RootComponent</text>
<text x="595.7" y="564.1" text-anchor="start" dominant-baseline="middle" transform="rotate(27.9 595.7 564.1)" font-size="10" font-weight="600" fill="#60A5FA" opacity="0.85">RootContent</text>
<text x="585.9" y="580.9" text-anchor="start" dominant-baseline="middle" transform="rotate(32.4 585.9 580.9)" font-size="10" font-weight="600" fill="#60A5FA" opacity="0.85">PokemonAbilityUti.</text>
<text x="400.3" y="662.0" text-anchor="middle" dominant-baseline="middle" transform="rotate(84.5 400.3 662.0)" font-size="11" font-weight="700" fill="#FFFFFF">core</text>
<text x="557.3" y="617.7" text-anchor="start" dominant-baseline="middle" transform="rotate(43.4 557.3 617.7)" font-size="10" font-weight="600" fill="#B91C1C" opacity="0.85">HttpClient</text>
<text x="495.8" y="664.8" text-anchor="start" dominant-baseline="middle" transform="rotate(61.7 495.8 664.8)" font-size="10" font-weight="600" fill="#B91C1C" opacity="0.85">HttpClientFactory</text>
<text x="422.6" y="690.3" text-anchor="start" dominant-baseline="middle" transform="rotate(79.9 422.6 690.3)" font-size="10" font-weight="600" fill="#B91C1C" opacity="0.85">PokemonClient</text>
<text x="345.1" y="691.5" text-anchor="end" dominant-baseline="middle" transform="rotate(278.2 345.1 691.5)" font-size="10" font-weight="600" fill="#B91C1C" opacity="0.85">ErrorHandler</text>
<text x="288.9" y="676.3" text-anchor="end" dominant-baseline="middle" transform="rotate(291.9 288.9 676.3)" font-size="10" font-weight="600" fill="#1D4ED8" opacity="0.85">NetworkModule</text>
<text x="264.2" y="664.8" text-anchor="end" dominant-baseline="middle" transform="rotate(298.3 264.2 664.8)" font-size="10" font-weight="600" fill="#60A5FA" opacity="0.85">PokemonDao</text>
<text x="250.8" y="657.0" text-anchor="end" dominant-baseline="middle" transform="rotate(302.0 250.8 657.0)" font-size="10" font-weight="600" fill="#60A5FA" opacity="0.85">PokemonInfoDao</text>
<text x="237.8" y="648.3" text-anchor="end" dominant-baseline="middle" transform="rotate(305.6 237.8 648.3)" font-size="10" font-weight="600" fill="#60A5FA" opacity="0.85">DatabaseModule</text>
<text x="219.5" y="633.8" text-anchor="end" dominant-baseline="middle" transform="rotate(311.1 219.5 633.8)" font-size="10" font-weight="600" fill="#60A5FA" opacity="0.85">AppModule</text>
<text x="209.9" y="578.2" text-anchor="middle" dominant-baseline="middle" transform="rotate(323.0 209.9 578.2)" font-size="11" font-weight="700" fill="#FFFFFF">data</text>
<text x="194.9" y="609.0" text-anchor="end" dominant-baseline="middle" transform="rotate(319.3 194.9 609.0)" font-size="10" font-weight="600" fill="#1D4ED8" opacity="0.85">PokemonRepository.</text>
<text x="174.1" y="580.9" text-anchor="end" dominant-baseline="middle" transform="rotate(327.6 174.1 580.9)" font-size="10" font-weight="600" fill="#60A5FA" opacity="0.85">DataModule</text>
<text x="269.8" y="489.3" text-anchor="middle" dominant-baseline="middle" transform="rotate(340.4 269.8 489.3)" font-size="11" font-weight="700" fill="#FFFFFF">Com.</text>
<text x="300.9" y="418.9" text-anchor="middle" dominant-baseline="middle" transform="rotate(381.5 300.9 418.9)" font-size="11" font-weight="700" fill="#FFFFFF">ios.</text>
<text x="271.1" y="407.2" text-anchor="middle" dominant-baseline="middle" transform="rotate(381.5 271.1 407.2)" font-size="11" font-weight="700" fill="#FFFFFF">com</text>
<text x="241.3" y="395.5" text-anchor="middle" dominant-baseline="middle" transform="rotate(381.5 241.3 395.5)" font-size="11" font-weight="700" fill="#FFFFFF">moco.</text>
<text x="211.6" y="383.7" text-anchor="middle" dominant-baseline="middle" transform="rotate(381.5 211.6 383.7)" font-size="11" font-weight="700" fill="#FFFFFF">pokedex</text>
<text x="176.2" y="388.1" text-anchor="middle" dominant-baseline="middle" transform="rotate(376.9 176.2 388.1)" font-size="11" font-weight="700" fill="#FFFFFF">core</text>
<text x="146.5" y="379.1" text-anchor="end" dominant-baseline="middle" transform="rotate(376.9 146.5 379.1)" font-size="10" font-weight="600" fill="#B91C1C" opacity="0.85">HttpClientFactory</text>
<text x="176.2" y="315.9" text-anchor="end" dominant-baseline="middle" transform="rotate(393.4 176.2 315.9)" font-size="10" font-weight="600" fill="#60A5FA" opacity="0.85">ContentView</text>
<text x="321.1" y="388.7" text-anchor="middle" dominant-baseline="middle" transform="rotate(406.1 321.1 388.7)" font-size="11" font-weight="700" fill="#FFFFFF">and.</text>
<text x="298.9" y="365.6" text-anchor="middle" dominant-baseline="middle" transform="rotate(406.1 298.9 365.6)" font-size="11" font-weight="700" fill="#FFFFFF">com</text>
<text x="276.8" y="342.6" text-anchor="middle" dominant-baseline="middle" transform="rotate(406.1 276.8 342.6)" font-size="11" font-weight="700" fill="#FFFFFF">moc.</text>
<text x="254.6" y="319.5" text-anchor="middle" dominant-baseline="middle" transform="rotate(406.1 254.6 319.5)" font-size="11" font-weight="700" fill="#FFFFFF">poke.</text>
<text x="227.6" y="301.2" text-anchor="middle" dominant-baseline="middle" transform="rotate(404.3 227.6 301.2)" font-size="11" font-weight="700" fill="#FFFFFF">core</text>
<text x="205.4" y="279.5" text-anchor="end" dominant-baseline="middle" transform="rotate(404.3 205.4 279.5)" font-size="10" font-weight="600" fill="#B91C1C" opacity="0.85">HttpClientFactory</text>
<text x="241.0" y="249.4" text-anchor="end" dominant-baseline="middle" transform="rotate(415.3 241.0 249.4)" font-size="10" font-weight="600" fill="#60A5FA" opacity="0.85">ContentView</text>
<text x="348.3" y="371.1" text-anchor="middle" dominant-baseline="middle" transform="rotate(428.1 348.3 371.1)" font-size="11" font-weight="700" fill="#FFFFFF">des.</text>
<text x="336.3" y="341.5" text-anchor="middle" dominant-baseline="middle" transform="rotate(428.1 336.3 341.5)" font-size="11" font-weight="700" fill="#FFFFFF">com.</text>
<text x="320.0" y="313.6" text-anchor="middle" dominant-baseline="middle" transform="rotate(426.2 320.0 313.6)" font-size="11" font-weight="700" fill="#FFFFFF">core</text>
<text x="307.1" y="284.3" text-anchor="middle" dominant-baseline="middle" transform="rotate(426.2 307.1 284.3)" font-size="11" font-weight="700" fill="#FFFFFF">net.</text>
<text x="294.2" y="255.0" text-anchor="middle" dominant-baseline="middle" transform="rotate(426.2 294.2 255.0)" font-size="11" font-weight="700" fill="#FFFFFF">Http.</text>
<text x="368.3" y="206.3" text-anchor="end" dominant-baseline="middle" transform="rotate(447.3 368.3 206.3)" font-size="10" font-weight="600" fill="#60A5FA" opacity="0.85">MainActivity</text>
<circle cx="380.0" cy="450.0" r="70" fill="#F5F4F0" stroke="#D8D6D0"/><text x="380.0" y="454.0" text-anchor="middle" font-size="13" font-weight="700" fill="#64748B">src</text>
<rect x="20" y="850" width="14" height="14" rx="3" fill="#B91C1C"/><text x="40" y="861" fill="#475569" font-size="11">Directo</text>
<rect x="164" y="850" width="14" height="14" rx="3" fill="#1D4ED8"/><text x="184" y="861" fill="#475569" font-size="11">Transitivo d1</text>
<rect x="308" y="850" width="14" height="14" rx="3" fill="#60A5FA"/><text x="328" y="861" fill="#475569" font-size="11">Transitivo d2+</text>
<rect x="452" y="850" width="14" height="14" rx="3" fill="#94A3B8"/><text x="472" y="861" fill="#475569" font-size="11">Sin impacto</text>
<rect x="596" y="850" width="14" height="14" rx="3" fill="none" stroke="#64748B" stroke-width="1.5" stroke-dasharray="3,2"/><text x="616" y="861" fill="#475569" font-size="11">Expect/Actual</text>
</svg>