<svg xmlns="http://www.w3.org/2000/svg" viewBox="0 0 760 880" width="760" height="880" font-family="system-ui,sans-serif">
<rect width="100%" height="100%" fill="#F5F4F0"/>
<text x="380.0" y="30" text-anchor="middle" fill="#1E293B" font-size="18" font-weight="700">KMP Impact . io.insert-koin</text>
<text x="380.0" y="52" text-anchor="middle" fill="#64748b" font-size="12">3.5.6 -&gt; 4.2.1 . 90 archivos</text>
<path d="M 380.00 350.00 A 100.00 100.00 0 1 1 280.17 444.23 L 310.12 445.96 A 70.00 70.00 0 1 0 380.00 380.00 Z" fill="#B91C1C" fill-opacity="1"/>
<path d="M 380.00 318.00 A 132.00 132.00 0 1 1 248.22 442.39 L 278.17 444.12 A 102.00 102.00 0 1 0 380.00 348.00 Z" fill="#B91C1C" fill-opacity="1"/>
<path d="M 380.00 286.00 A 164.00 164.00 0 1 1 216.27 440.54 L 246.22 442.27 A 134.00 134.00 0 1 0 380.00 316.00 Z" fill="#B91C1C" fill-opacity="1"/>
<path d="M 380.00 254.00 A 196.00 196.00 0 1 1 184.33 438.70 L 214.28 440.43 A 166.00 166.00 0 1 0 380.00 284.00 Z" fill="#B91C1C" fill-opacity="1"/>
<path d="M 380.00 222.00 A 228.00 228.00 0 0 1 457.37 664.47 L 447.19 636.25 A 198.00 198.00 0 0 0 380.00 252.00 Z" fill="#B91C1C" fill-opacity="1"/>
<path d="M 457.37 664.47 A 228.00 228.00 0 0 1 175.22 550.24 L 202.16 537.05 A 198.00 198.00 0 0 0 447.19 636.25 Z" fill="#B91C1C" fill-opacity="1"/>
<path d="M 175.22 550.24 A 228.00 228.00 0 0 1 152.38 436.85 L 182.33 438.58 A 198.00 198.00 0 0 0 202.16 537.05 Z" fill="#B91C1C" fill-opacity="1"/>
<path d="M 280.17 444.23 A 100.00 100.00 0 0 1 293.18 400.37 L 319.23 415.26 A 70.00 70.00 0 0 0 310.12 445.96 Z" fill="#B91C1C" fill-opacity="1"/>
<path d="M 248.22 442.39 A 132.00 132.00 0 0 1 265.40 384.49 L 291.45 399.38 A 102.00 102.00 0 0 0 278.17 444.12 Z" fill="#B91C1C" fill-opacity="1"/>
<path d="M 216.27 440.54 A 164.00 164.00 0 0 1 237.62 368.61 L 263.67 383.50 A 134.00 134.00 0 0 0 246.22 442.27 Z" fill="#B91C1C" fill-opacity="1"/>
<path d="M 184.33 438.70 A 196.00 196.00 0 0 1 209.84 352.73 L 235.89 367.62 A 166.00 166.00 0 0 0 214.28 440.43 Z" fill="#B91C1C" fill-opacity="1"/>
<path d="M 152.38 436.85 A 228.00 228.00 0 0 1 163.16 379.54 L 191.69 388.81 A 198.00 198.00 0 0 0 182.33 438.58 Z" fill="#B91C1C" fill-opacity="1"/>
<path d="M 163.16 379.54 A 228.00 228.00 0 0 1 173.95 352.39 L 201.06 365.24 A 198.00 198.00 0 0 0 191.69 388.81 Z" fill="#1D4ED8" fill-opacity="1"/>
<path d="M 173.95 352.39 A 228.00 228.00 0 0 1 182.06 336.85 L 208.11 351.73 A 198.00 198.00 0 0 0 201.06 365.24 Z" fill="#60A5FA" fill-opacity="1"/>
<path d="M 293.18 400.37 A 100.00 100.00 0 0 1 314.21 374.69 L 333.94 397.28 A 70.00 70.00 0 0 0 319.23 415.26 Z" fill="#B91C1C" fill-opacity="1"/>
<path d="M 265.40 384.49 A 132.00 132.00 0 0 1 293.15 350.59 L 312.89 373.19 A 102.00 102.00 0 0 0 291.45 399.38 Z" fill="#B91C1C" fill-opacity="1"/>
<path d="M 237.62 368.61 A 164.00 164.00 0 0 1 272.10 326.50 L 291.84 349.09 A 134.00 134.00 0 0 0 263.67 383.50 Z" fill="#B91C1C" fill-opacity="1"/>
<path d="M 209.84 352.73 A 196.00 196.00 0 0 1 251.04 302.40 L 270.78 324.99 A 166.00 166.00 0 0 0 235.89 367.62 Z" fill="#B91C1C" fill-opacity="1"/>
<path d="M 182.06 336.85 A 228.00 228.00 0 0 1 217.24 290.34 L 238.65 311.35 A 198.00 198.00 0 0 0 208.11 351.73 Z" fill="#B91C1C" fill-opacity="1"/>
<path d="M 217.24 290.34 A 228.00 228.00 0 0 1 229.99 278.30 L 249.73 300.89 A 198.00 198.00 0 0 0 238.65 311.35 Z" fill="#60A5FA" fill-opacity="1"/>
<path d="M 314.21 374.69 A 100.00 100.00 0 0 1 342.47 357.31 L 353.73 385.12 A 70.00 70.00 0 0 0 333.94 397.28 Z" fill="#B91C1C" fill-opacity="1"/>
<path d="M 293.15 350.59 A 132.00 132.00 0 0 1 330.46 327.65 L 341.72 355.45 A 102.00 102.00 0 0 0 312.89 373.19 Z" fill="#B91C1C" fill-opacity="1"/>
<path d="M 272.10 326.50 A 164.00 164.00 0 0 1 306.95 303.17 L 320.32 330.03 A 134.00 134.00 0 0 0 291.84 349.09 Z" fill="#B91C1C" fill-opacity="1"/>
<path d="M 251.04 302.40 A 196.00 196.00 0 0 1 292.70 274.52 L 306.06 301.37 A 166.00 166.00 0 0 0 270.78 324.99 Z" fill="#B91C1C" fill-opacity="1"/>
<path d="M 229.99 278.30 A 228.00 228.00 0 0 1 278.45 245.86 L 291.81 272.72 A 198.00 198.00 0 0 0 249.73 300.89 Z" fill="#B91C1C" fill-opacity="1" stroke="#64748B" stroke-width="1.5" stroke-dasharray="3,2"/>
<path d="M 306.95 303.17 A 164.00 164.00 0 0 1 318.46 297.99 L 329.71 325.79 A 134.00 134.00 0 0 0 320.32 330.03 Z" fill="#60A5FA" fill-opacity="1"/>
<path d="M 292.70 274.52 A 196.00 196.00 0 0 1 306.45 268.32 L 317.71 296.13 A 166.00 166.00 0 0 0 306.06 301.37 Z" fill="#60A5FA" fill-opacity="1"/>
<path d="M 342.47 357.31 A 100.00 100.00 0 0 1 367.21 350.82 L 371.05 380.57 A 70.00 70.00 0 0 0 353.73 385.12 Z" fill="#B91C1C" fill-opacity="1"/>
<path d="M 330.46 327.65 A 132.00 132.00 0 0 1 363.12 319.08 L 366.96 348.84 A 102.00 102.00 0 0 0 341.72 355.45 Z" fill="#B91C1C" fill-opacity="1"/>
<path d="M 318.46 297.99 A 164.00 164.00 0 0 1 359.03 287.35 L 362.86 317.10 A 134.00 134.00 0 0 0 329.71 325.79 Z" fill="#B91C1C" fill-opacity="1"/>
<path d="M 306.45 268.32 A 196.00 196.00 0 0 1 354.94 255.61 L 358.77 285.36 A 166.00 166.00 0 0 0 317.71 296.13 Z" fill="#B91C1C" fill-opacity="1"/>
<path d="M 294.44 238.66 A 228.00 228.00 0 0 1 350.84 223.87 L 354.68 253.63 A 198.00 198.00 0 0 0 305.70 266.47 Z" fill="#B91C1C" fill-opacity="1"/>
<path d="M 367.21 350.82 A 100.00 100.00 0 0 1 380.00 350.00 L 380.00 380.00 A 70.00 70.00 0 0 0 371.05 380.57 Z" fill="#1D4ED8" fill-opacity="1"/>
<path d="M 363.12 319.08 A 132.00 132.00 0 0 1 380.00 318.00 L 380.00 348.00 A 102.00 102.00 0 0 0 366.96 348.84 Z" fill="#1D4ED8" fill-opacity="1"/>
<text x="438.3" y="511.8" text-anchor="middle" dominant-baseline="middle" transform="rotate(46.7 438.3 511.8)" font-size="11" font-weight="700" fill="#FFFFFF">commonMain</text>
<text x="460.3" y="535.1" text-anchor="middle" dominant-baseline="middle" transform="rotate(46.7 460.3 535.1)" font-size="11" font-weight="700" fill="#FFFFFF">com</text>
<text x="482.3" y="558.4" text-anchor="middle" dominant-baseline="middle" transform="rotate(46.7 482.3 558.4)" font-size="11" font-weight="700" fill="#FFFFFF">mocoding</text>
<text x="504.2" y="581.6" text-anchor="middle" dominant-baseline="middle" transform="rotate(46.7 504.2 581.6)" font-size="11" font-weight="700" fill="#FFFFFF">pokedex</text>
<text x="589.8" y="413.3" text-anchor="middle" dominant-baseline="middle" transform="rotate(-9.9 589.8 413.3)" font-size="11" font-weight="700" fill="#FFFFFF">ui</text>
<text x="411.2" y="208.0" text-anchor="start" dominant-baseline="middle" transform="rotate(-82.7 411.2 208.0)" font-size="10" font-weight="600" fill="#B91C1C" opacity="0.85">PokedexStoreFacto.</text>
<text x="456.9" y="218.4" text-anchor="start" dominant-baseline="middle" transform="rotate(-71.6 456.9 218.4)" font-size="10" font-weight="600" fill="#1D4ED8" opacity="0.85">PokedexContent</text>
<text x="480.2" y="227.5" text-anchor="start" dominant-baseline="middle" transform="rotate(-65.8 480.2 227.5)" font-size="10" font-weight="600" fill="#60A5FA" opacity="0.85">PokemonItem</text>
<text x="502.5" y="239.0" text-anchor="start" dominant-baseline="middle" transform="rotate(-59.9 502.5 239.0)" font-size="10" font-weight="600" fill="#1D4ED8" opacity="0.85">PokedexComponent</text>
<text x="525.9" y="254.5" text-anchor="start" dominant-baseline="middle" transform="rotate(-53.3 525.9 254.5)" font-size="10" font-weight="600" fill="#60A5FA" opacity="0.85">PokedexScreen</text>
<text x="558.5" y="283.7" text-anchor="start" dominant-baseline="middle" transform="rotate(-43.0 558.5 283.7)" font-size="10" font-weight="600" fill="#B91C1C" opacity="0.85">DetailsStoreFacto.</text>
<text x="587.0" y="320.8" text-anchor="start" dominant-baseline="middle" transform="rotate(-32.0 587.0 320.8)" font-size="10" font-weight="600" fill="#1D4ED8" opacity="0.85">DetailsContent</text>
<text x="597.8" y="339.9" text-anchor="start" dominant-baseline="middle" transform="rotate(-26.8 597.8 339.9)" font-size="10" font-weight="600" fill="#60A5FA" opacity="0.85">AbilityRow</text>
<text x="606.8" y="359.9" text-anchor="start" dominant-baseline="middle" transform="rotate(-21.7 606.8 359.9)" font-size="10" font-weight="600" fill="#1D4ED8" opacity="0.85">DetailsComponent</text>
<text x="615.6" y="386.6" text-anchor="start" dominant-baseline="middle" transform="rotate(-15.1 615.6 386.6)" font-size="10" font-weight="600" fill="#60A5FA" opacity="0.85">DetailsScreen</text>
<text x="623.2" y="429.7" text-anchor="start" dominant-baseline="middle" transform="rotate(-4.8 623.2 429.7)" font-size="10" font-weight="600" fill="#B91C1C" opacity="0.85">FavoriteStoreFact.</text>
<text x="622.6" y="476.5" text-anchor="start" dominant-baseline="middle" transform="rotate(6.2 622.6 476.5)" font-size="10" font-weight="600" fill="#1D4ED8" opacity="0.85">FavoriteComponent</text>
<text x="617.2" y="507.3" text-anchor="start" dominant-baseline="middle" transform="rotate(13.6 617.2 507.3)" font-size="10" font-weight="600" fill="#1D4ED8" opacity="0.85">FavoriteContent</text>
<text x="609.0" y="534.3" text-anchor="start" dominant-baseline="middle" transform="rotate(20.2 609.0 534.3)" font-size="10" font-weight="600" fill="#60A5FA" opacity="0.85">FavoriteScreen</text>
<text x="599.2" y="557.3" text-anchor="start" dominant-baseline="middle" transform="rotate(26.1 599.2 557.3)" font-size="10" font-weight="600" fill="#60A5FA" opacity="0.85">MainContent</text>
<text x="590.3" y="573.8" text-anchor="start" dominant-baseline="middle" transform="rotate(30.5 590.3 573.8)" font-size="10" font-weight="600" fill="#60A5FA" opacity="0.85">CategoryButton</text>
<text x="578.3" y="592.2" text-anchor="start" dominant-baseline="middle" transform="rotate(35.6 578.3 592.2)" font-size="10" font-weight="600" fill="#1D4ED8" opacity="0.85">MainComponent</text>
<text x="558.5" y="616.3" text-anchor="start" dominant-baseline="middle" transform="rotate(43.0 558.5 616.3)" font-size="10" font-weight="600" fill="#1D4ED8" opacity="0.85">MainStoreFactory</text>
<text x="538.2" y="635.8" text-anchor="start" dominant-baseline="middle" transform="rotate(49.6 538.2 635.8)" font-size="10" font-weight="600" fill="#60A5FA" opacity="0.85">MainScreen</text>
<text x="523.4" y="647.4" text-anchor="start" dominant-baseline="middle" transform="rotate(54.0 523.4 647.4)" font-size="10" font-weight="600" fill="#60A5FA" opacity="0.85">CategoryState</text>
<text x="507.8" y="657.8" text-anchor="start" dominant-baseline="middle" transform="rotate(58.4 507.8 657.8)" font-size="10" font-weight="600" fill="#60A5FA" opacity="0.85">RootComponent</text>
<text x="485.9" y="669.8" text-anchor="start" dominant-baseline="middle" transform="rotate(64.3 485.9 669.8)" font-size="10" font-weight="600" fill="#60A5FA" opacity="0.85">RootContent</text>
<text x="468.7" y="677.3" text-anchor="start" dominant-baseline="middle" transform="rotate(68.7 468.7 677.3)" font-size="10" font-weight="600" fill="#60A5FA" opacity="0.85">PokemonAbilityUti.</text>
<text x="300.1" y="647.4" text-anchor="middle" dominant-baseline="middle" transform="rotate(292.0 300.1 647.4)" font-size="11" font-weight="700" fill="#FFFFFF">core</text>
<text x="432.8" y="688.2" text-anchor="start" dominant-baseline="middle" transform="rotate(77.5 432.8 688.2)" font-size="10" font-weight="600" fill="#B91C1C" opacity="0.85">SqlDriverFactory</text>
<text x="386.3" y="693.9" text-anchor="start" dominant-baseline="middle" transform="rotate(88.5 386.3 693.9)" font-size="10" font-weight="600" fill="#1D4ED8" opacity="0.85">PokemonDao</text>
<text x="355.0" y="692.7" text-anchor="end" dominant-baseline="middle" transform="rotate(275.9 355.0 692.7)" font-size="10" font-weight="600" fill="#1D4ED8" opacity="0.85">PokemonInfoDao</text>
<text x="309.1" y="683.5" text-anchor="end" dominant-baseline="middle" transform="rotate(286.9 309.1 683.5)" font-size="10" font-weight="600" fill="#B91C1C" opacity="0.85">DatabaseModule</text>
<text x="252.2" y="657.8" text-anchor="end" dominant-baseline="middle" transform="rotate(301.6 252.2 657.8)" font-size="10" font-weight="600" fill="#B91C1C" opacity="0.85">NetworkModule</text>
<text x="217.1" y="631.7" text-anchor="end" dominant-baseline="middle" transform="rotate(311.9 217.1 631.7)" font-size="10" font-weight="600" fill="#60A5FA" opacity="0.85">ErrorHandler</text>
<text x="201.5" y="616.3" text-anchor="end" dominant-baseline="middle" transform="rotate(317.0 201.5 616.3)" font-size="10" font-weight="600" fill="#60A5FA" opacity="0.85">PokemonClient</text>
<text x="176.4" y="584.4" text-anchor="end" dominant-baseline="middle" transform="rotate(326.6 176.4 584.4)" font-size="10" font-weight="600" fill="#B91C1C" opacity="0.85">AppModule</text>
<text x="171.2" y="492.1" text-anchor="middle" dominant-baseline="middle" transform="rotate(348.6 171.2 492.1)" font-size="11" font-weight="700" fill="#FFFFFF">data</text>
<text x="148.9" y="528.4" text-anchor="end" dominant-baseline="middle" transform="rotate(341.3 148.9 528.4)" font-size="10" font-weight="600" fill="#B91C1C" opacity="0.85">DataModule</text>
<text x="136.6" y="467.2" text-anchor="end" dominant-baseline="middle" transform="rotate(356.0 136.6 467.2)" font-size="10" font-weight="600" fill="#B91C1C" opacity="0.85">PokemonRepository.</text>
<text x="298.5" y="425.8" text-anchor="middle" dominant-baseline="middle" transform="rotate(376.5 298.5 425.8)" font-size="11" font-weight="700" fill="#FFFFFF">ios.</text>
<text x="267.8" y="416.7" text-anchor="middle" dominant-baseline="middle" transform="rotate(376.5 267.8 416.7)" font-size="11" font-weight="700" fill="#FFFFFF">com</text>
<text x="237.2" y="407.6" text-anchor="middle" dominant-baseline="middle" transform="rotate(376.5 237.2 407.6)" font-size="11" font-weight="700" fill="#FFFFFF">moco.</text>
<text x="206.5" y="398.5" text-anchor="middle" dominant-baseline="middle" transform="rotate(376.5 206.5 398.5)" font-size="11" font-weight="700" fill="#FFFFFF">poked.</text>
<text x="170.7" y="410.6" text-anchor="middle" dominant-baseline="middle" transform="rotate(370.7 170.7 410.6)" font-size="11" font-weight="700" fill="#FFFFFF">core</text>
<text x="140.2" y="404.9" text-anchor="end" dominant-baseline="middle" transform="rotate(370.7 140.2 404.9)" font-size="10" font-weight="600" fill="#B91C1C" opacity="0.85">SqlDriverFactory</text>
<text x="163.7" y="337.1" text-anchor="end" dominant-baseline="middle" transform="rotate(387.6 163.7 337.1)" font-size="10" font-weight="600" fill="#60A5FA" opacity="0.85">ContentView</text>
<text x="314.2" y="396.2" text-anchor="middle" dominant-baseline="middle" transform="rotate(399.3 314.2 396.2)" font-size="11" font-weight="700" fill="#FFFFFF">and.</text>
<text x="289.5" y="375.9" text-anchor="middle" dominant-baseline="middle" transform="rotate(399.3 289.5 375.9)" font-size="11" font-weight="700" fill="#FFFFFF">com</text>
<text x="264.7" y="355.6" text-anchor="middle" dominant-baseline="middle" transform="rotate(399.3 264.7 355.6)" font-size="11" font-weight="700" fill="#FFFFFF">moc.</text>
<text x="239.9" y="335.3" text-anchor="middle" dominant-baseline="middle" transform="rotate(399.3 239.9 335.3)" font-size="11" font-weight="700" fill="#FFFFFF">poke.</text>
<text x="210.1" y="321.5" text-anchor="middle" dominant-baseline="middle" transform="rotate(397.1 210.1 321.5)" font-size="11" font-weight="700" fill="#FFFFFF">core</text>
<text x="185.4" y="302.8" text-anchor="end" dominant-baseline="middle" transform="rotate(397.1 185.4 302.8)" font-size="10" font-weight="600" fill="#B91C1C" opacity="0.85">AndroidSqlDriverF.</text>
<text x="212.5" y="272.6" text-anchor="end" dominant-baseline="middle" transform="rotate(406.7 212.5 272.6)" font-size="10" font-weight="600" fill="#60A5FA" opacity="0.85">ContentView</text>
<text x="335.5" y="377.6" text-anchor="middle" dominant-baseline="middle" transform="rotate(418.4 335.5 377.6)" font-size="11" font-weight="700" fill="#FFFFFF">des.</text>
<text x="318.7" y="350.3" text-anchor="middle" dominant-baseline="middle" transform="rotate(418.4 318.7 350.3)" font-size="11" font-weight="700" fill="#FFFFFF">com.</text>
<text x="297.1" y="326.2" text-anchor="middle" dominant-baseline="middle" transform="rotate(416.2 297.1 326.2)" font-size="11" font-weight="700" fill="#FFFFFF">core</text>
<text x="279.3" y="299.6" text-anchor="middle" dominant-baseline="middle" transform="rotate(416.2 279.3 299.6)" font-size="11" font-weight="700" fill="#FFFFFF">dat.</text>
<text x="261.5" y="273.0" text-anchor="middle" dominant-baseline="middle" transform="rotate(416.2 261.5 273.0)" font-size="11" font-weight="700" fill="#FFFFFF">Des.</text>
<text x="358.4" y="367.8" text-anchor="middle" dominant-baseline="middle" transform="rotate(435.3 358.4 367.8)" font-size="11" font-weight="700" fill="#FFFFFF">main</text>
<text x="350.3" y="336.8" text-anchor="middle" dominant-baseline="middle" transform="rotate(435.3 350.3 336.8)" font-size="11" font-weight="700" fill="#FFFFFF">java</text>
<text x="342.2" y="305.9" text-anchor="middle" dominant-baseline="middle" transform="rotate(435.3 342.2 305.9)" font-size="11" font-weight="700" fill="#FFFFFF">com</text>
<text x="334.1" y="274.9" text-anchor="middle" dominant-baseline="middle" transform="rotate(435.3 334.1 274.9)" font-size="11" font-weight="700" fill="#FFFFFF">moc.</text>
<text x="326.0" y="244.0" text-anchor="middle" dominant-baseline="middle" transform="rotate(435.3 326.0 244.0)" font-size="11" font-weight="700" fill="#FFFFFF">pok.</text>
<text x="318.1" y="214.0" text-anchor="end" dominant-baseline="middle" transform="rotate(435.3 318.1 214.0)" font-size="10" font-weight="600" fill="#B91C1C" opacity="0.85">MainActivity</text>
<circle cx="380.0" cy="450.0" r="70" fill="#F5F4F0" stroke="#D8D6D0"/><text x="380.0" y="454.0" text-anchor="middle" font-size="13" font-weight="700" fill="#64748B">src</text>
<rect x="20" y="850" width="14" height="14" rx="3" fill="#B91C1C"/><text x="40" y="861" fill="#475569" font-size="11">Directo</text>
<rect x="164" y="850" width="14" height="14" rx="3" fill="#1D4ED8"/><text x="184" y="861" fill="#475569" font-size="11">Transitivo d1</text>
<rect x="308" y="850" width="14" height="14" rx="3" fill="#60A5FA"/><text x="328" y="861" fill="#475569" font-size="11">Transitivo d2+</text>
<rect x="452" y="850" width="14" height="14" rx="3" fill="#94A3B8"/><text x="472" y="861" fill="#475569" font-size="11">Sin impacto</text>
<rect x="596" y="850" width="14" height="14" rx="3" fill="none" stroke="#64748B" stroke-width="1.5" stroke-dasharray="3,2"/><text x="616" y="861" fill="#475569" font-size="11">Expect/Actual</text>
</svg>