<svg xmlns="http://www.w3.org/2000/svg" viewBox="0 0 760 880" width="760" height="880" font-family="system-ui,sans-serif">
<rect width="100%" height="100%" fill="#F5F4F0"/>
<text x="380.0" y="30" text-anchor="middle" fill="#1E293B" font-size="18" font-weight="700">KMP Impact . org.jetbrains.kotlin.android</text>
<text x="380.0" y="52" text-anchor="middle" fill="#64748b" font-size="12">2.0.21 -&gt; 2.3.21 . 90 archivos</text>
<path d="M 380.00 350.00 A 100.00 100.00 0 1 1 291.27 403.88 L 317.89 417.72 A 70.00 70.00 0 1 0 380.00 380.00 Z" fill="#B91C1C" fill-opacity="1"/>
<path d="M 380.00 318.00 A 132.00 132.00 0 1 1 262.88 389.12 L 289.50 402.96 A 102.00 102.00 0 1 0 380.00 348.00 Z" fill="#B91C1C" fill-opacity="1"/>
<path d="M 380.00 286.00 A 164.00 164.00 0 1 1 234.48 374.36 L 261.10 388.20 A 134.00 134.00 0 1 0 380.00 316.00 Z" fill="#B91C1C" fill-opacity="1"/>
<path d="M 380.00 254.00 A 196.00 196.00 0 1 1 206.09 359.60 L 232.71 373.44 A 166.00 166.00 0 1 0 380.00 284.00 Z" fill="#B91C1C" fill-opacity="1"/>
<path d="M 380.00 222.00 A 228.00 228.00 0 1 1 363.20 677.38 L 365.41 647.46 A 198.00 198.00 0 1 0 380.00 252.00 Z" fill="#B91C1C" fill-opacity="1"/>
<path d="M 363.20 677.38 A 228.00 228.00 0 0 1 155.86 491.80 L 185.36 486.30 A 198.00 198.00 0 0 0 365.41 647.46 Z" fill="#B91C1C" fill-opacity="1"/>
<path d="M 155.86 491.80 A 228.00 228.00 0 0 1 164.44 375.72 L 192.80 385.49 A 198.00 198.00 0 0 0 185.36 486.30 Z" fill="#B91C1C" fill-opacity="1"/>
<path d="M 164.44 375.72 A 228.00 228.00 0 0 1 177.70 344.85 L 204.32 358.68 A 198.00 198.00 0 0 0 192.80 385.49 Z" fill="#B91C1C" fill-opacity="1"/>
<path d="M 291.27 403.88 A 100.00 100.00 0 0 1 306.48 382.21 L 328.54 402.55 A 70.00 70.00 0 0 0 317.89 417.72 Z" fill="#B91C1C" fill-opacity="1"/>
<path d="M 262.88 389.12 A 132.00 132.00 0 0 1 282.95 360.52 L 305.01 380.86 A 102.00 102.00 0 0 0 289.50 402.96 Z" fill="#B91C1C" fill-opacity="1"/>
<path d="M 234.48 374.36 A 164.00 164.00 0 0 1 259.43 338.83 L 281.48 359.17 A 134.00 134.00 0 0 0 261.10 388.20 Z" fill="#B91C1C" fill-opacity="1"/>
<path d="M 206.09 359.60 A 196.00 196.00 0 0 1 235.90 317.14 L 257.96 337.48 A 166.00 166.00 0 0 0 232.71 373.44 Z" fill="#B91C1C" fill-opacity="1"/>
<path d="M 177.70 344.85 A 228.00 228.00 0 0 1 195.35 316.26 L 219.64 333.85 A 198.00 198.00 0 0 0 204.32 358.68 Z" fill="#B91C1C" fill-opacity="1"/>
<path d="M 195.35 316.26 A 228.00 228.00 0 0 1 203.55 305.60 L 226.77 324.60 A 198.00 198.00 0 0 0 219.64 333.85 Z" fill="#60A5FA" fill-opacity="1"/>
<path d="M 203.55 305.60 A 228.00 228.00 0 0 1 212.37 295.45 L 234.43 315.79 A 198.00 198.00 0 0 0 226.77 324.60 Z" fill="#60A5FA" fill-opacity="1"/>
<path d="M 306.48 382.21 A 100.00 100.00 0 0 1 321.94 368.58 L 339.36 393.01 A 70.00 70.00 0 0 0 328.54 402.55 Z" fill="#B91C1C" fill-opacity="1"/>
<path d="M 282.95 360.52 A 132.00 132.00 0 0 1 303.36 342.53 L 320.78 366.95 A 102.00 102.00 0 0 0 305.01 380.86 Z" fill="#B91C1C" fill-opacity="1"/>
<path d="M 259.43 338.83 A 164.00 164.00 0 0 1 284.78 316.47 L 302.20 340.90 A 134.00 134.00 0 0 0 281.48 359.17 Z" fill="#B91C1C" fill-opacity="1"/>
<path d="M 235.90 317.14 A 196.00 196.00 0 0 1 266.20 290.42 L 283.62 314.84 A 166.00 166.00 0 0 0 257.96 337.48 Z" fill="#B91C1C" fill-opacity="1"/>
<path d="M 212.37 295.45 A 228.00 228.00 0 0 1 236.91 272.49 L 255.74 295.85 A 198.00 198.00 0 0 0 234.43 315.79 Z" fill="#B91C1C" fill-opacity="1"/>
<path d="M 236.91 272.49 A 228.00 228.00 0 0 1 247.62 264.37 L 265.04 288.79 A 198.00 198.00 0 0 0 255.74 295.85 Z" fill="#60A5FA" fill-opacity="1"/>
<path d="M 321.94 368.58 A 100.00 100.00 0 0 1 339.87 358.41 L 351.91 385.88 A 70.00 70.00 0 0 0 339.36 393.01 Z" fill="#B91C1C" fill-opacity="1"/>
<path d="M 303.36 342.53 A 132.00 132.00 0 0 1 327.02 329.10 L 339.06 356.58 A 102.00 102.00 0 0 0 320.78 366.95 Z" fill="#B91C1C" fill-opacity="1"/>
<path d="M 284.78 316.47 A 164.00 164.00 0 0 1 305.44 303.93 L 319.08 330.65 A 134.00 134.00 0 0 0 302.20 340.90 Z" fill="#B91C1C" fill-opacity="1"/>
<path d="M 305.44 303.93 A 164.00 164.00 0 0 1 314.18 299.79 L 326.22 327.27 A 134.00 134.00 0 0 0 319.08 330.65 Z" fill="#60A5FA" fill-opacity="1"/>
<path d="M 290.89 275.43 A 196.00 196.00 0 0 1 301.34 270.48 L 313.38 297.96 A 166.00 166.00 0 0 0 304.53 302.15 Z" fill="#60A5FA" fill-opacity="1"/>
<path d="M 339.87 358.41 A 100.00 100.00 0 0 1 353.76 353.50 L 361.63 382.45 A 70.00 70.00 0 0 0 351.91 385.88 Z" fill="#B91C1C" fill-opacity="1"/>
<path d="M 327.02 329.10 A 132.00 132.00 0 0 1 345.37 322.62 L 353.24 351.57 A 102.00 102.00 0 0 0 339.06 356.58 Z" fill="#B91C1C" fill-opacity="1"/>
<path d="M 314.18 299.79 A 164.00 164.00 0 0 1 336.97 291.75 L 344.84 320.69 A 134.00 134.00 0 0 0 326.22 327.27 Z" fill="#B91C1C" fill-opacity="1"/>
<path d="M 301.34 270.48 A 196.00 196.00 0 0 1 328.57 260.87 L 336.45 289.82 A 166.00 166.00 0 0 0 313.38 297.96 Z" fill="#B91C1C" fill-opacity="1"/>
<path d="M 288.49 241.17 A 228.00 228.00 0 0 1 320.18 229.99 L 328.05 258.94 A 198.00 198.00 0 0 0 300.53 268.65 Z" fill="#B91C1C" fill-opacity="1"/>
<path d="M 353.76 353.50 A 100.00 100.00 0 0 1 368.23 350.70 L 371.76 380.49 A 70.00 70.00 0 0 0 361.63 382.45 Z" fill="#B91C1C" fill-opacity="1"/>
<path d="M 345.37 322.62 A 132.00 132.00 0 0 1 364.46 318.92 L 367.99 348.71 A 102.00 102.00 0 0 0 353.24 351.57 Z" fill="#B91C1C" fill-opacity="1"/>
<path d="M 336.97 291.75 A 164.00 164.00 0 0 1 360.69 287.14 L 364.23 316.93 A 134.00 134.00 0 0 0 344.84 320.69 Z" fill="#B91C1C" fill-opacity="1"/>
<path d="M 328.57 260.87 A 196.00 196.00 0 0 1 356.93 255.36 L 360.46 285.15 A 166.00 166.00 0 0 0 336.45 289.82 Z" fill="#B91C1C" fill-opacity="1"/>
<path d="M 320.18 229.99 A 228.00 228.00 0 0 1 353.16 223.59 L 356.69 253.38 A 198.00 198.00 0 0 0 328.05 258.94 Z" fill="#B91C1C" fill-opacity="1"/>
<path d="M 368.23 350.70 A 100.00 100.00 0 0 1 374.10 350.17 L 375.87 380.12 A 70.00 70.00 0 0 0 371.76 380.49 Z" fill="#60A5FA" fill-opacity="1"/>
<path d="M 364.46 318.92 A 132.00 132.00 0 0 1 372.22 318.23 L 373.99 348.18 A 102.00 102.00 0 0 0 367.99 348.71 Z" fill="#60A5FA" fill-opacity="1"/>
<path d="M 374.10 350.17 A 100.00 100.00 0 0 1 380.00 350.00 L 380.00 380.00 A 70.00 70.00 0 0 0 375.87 380.12 Z" fill="#60A5FA" fill-opacity="1"/>
<path d="M 372.22 318.23 A 132.00 132.00 0 0 1 380.00 318.00 L 380.00 348.00 A 102.00 102.00 0 0 0 373.99 348.18 Z" fill="#60A5FA" fill-opacity="1"/>
<path d="M 370.33 286.29 A 164.00 164.00 0 0 1 380.00 286.00 L 380.00 316.00 A 134.00 134.00 0 0 0 372.10 316.23 Z" fill="#60A5FA" fill-opacity="1"/>
<path d="M 368.44 254.34 A 196.00 196.00 0 0 1 380.00 254.00 L 380.00 284.00 A 166.00 166.00 0 0 0 370.21 284.29 Z" fill="#60A5FA" fill-opacity="1"/>
<path d="M 366.56 222.40 A 228.00 228.00 0 0 1 380.00 222.00 L 380.00 252.00 A 198.00 198.00 0 0 0 368.33 252.34 Z" fill="#60A5FA" fill-opacity="1"/>
<text x="424.1" y="522.7" text-anchor="middle" dominant-baseline="middle" transform="rotate(58.7 424.1 522.7)" font-size="11" font-weight="700" fill="#FFFFFF">commonMain</text>
<text x="440.7" y="550.0" text-anchor="middle" dominant-baseline="middle" transform="rotate(58.7 440.7 550.0)" font-size="11" font-weight="700" fill="#FFFFFF">com</text>
<text x="457.3" y="577.4" text-anchor="middle" dominant-baseline="middle" transform="rotate(58.7 457.3 577.4)" font-size="11" font-weight="700" fill="#FFFFFF">mocoding</text>
<text x="473.9" y="604.7" text-anchor="middle" dominant-baseline="middle" transform="rotate(58.7 473.9 604.7)" font-size="11" font-weight="700" fill="#FFFFFF">pokedex</text>
<text x="592.9" y="457.9" text-anchor="middle" dominant-baseline="middle" transform="rotate(2.1 592.9 457.9)" font-size="11" font-weight="700" fill="#FFFFFF">ui</text>
<text x="398.0" y="206.7" text-anchor="start" dominant-baseline="middle" transform="rotate(-85.8 398.0 206.7)" font-size="10" font-weight="600" fill="#B91C1C" opacity="0.85">PokemonStatItem</text>
<text x="424.7" y="210.1" text-anchor="start" dominant-baseline="middle" transform="rotate(-79.4 424.7 210.1)" font-size="10" font-weight="600" fill="#1D4ED8" opacity="0.85">AbilityRow</text>
<text x="442.3" y="214.1" text-anchor="start" dominant-baseline="middle" transform="rotate(-75.2 442.3 214.1)" font-size="10" font-weight="600" fill="#1D4ED8" opacity="0.85">DetailsContent</text>
<text x="459.5" y="219.3" text-anchor="start" dominant-baseline="middle" transform="rotate(-71.0 459.5 219.3)" font-size="10" font-weight="600" fill="#1D4ED8" opacity="0.85">PokemonInfos</text>
<text x="476.3" y="225.8" text-anchor="start" dominant-baseline="middle" transform="rotate(-66.8 476.3 225.8)" font-size="10" font-weight="600" fill="#1D4ED8" opacity="0.85">PokemonStats</text>
<text x="500.4" y="237.8" text-anchor="start" dominant-baseline="middle" transform="rotate(-60.4 500.4 237.8)" font-size="10" font-weight="600" fill="#B91C1C" opacity="0.85">DetailsStoreFacto.</text>
<text x="523.1" y="252.4" text-anchor="start" dominant-baseline="middle" transform="rotate(-54.1 523.1 252.4)" font-size="10" font-weight="600" fill="#1D4ED8" opacity="0.85">DetailsStore</text>
<text x="544.1" y="269.4" text-anchor="start" dominant-baseline="middle" transform="rotate(-47.7 544.1 269.4)" font-size="10" font-weight="600" fill="#B91C1C" opacity="0.85">DetailsComponent</text>
<text x="563.0" y="288.6" text-anchor="start" dominant-baseline="middle" transform="rotate(-41.4 563.0 288.6)" font-size="10" font-weight="600" fill="#1D4ED8" opacity="0.85">DetailsScreen</text>
<text x="574.4" y="302.5" text-anchor="start" dominant-baseline="middle" transform="rotate(-37.2 574.4 302.5)" font-size="10" font-weight="600" fill="#1D4ED8" opacity="0.85">MainContent</text>
<text x="584.7" y="317.3" text-anchor="start" dominant-baseline="middle" transform="rotate(-33.0 584.7 317.3)" font-size="10" font-weight="600" fill="#1D4ED8" opacity="0.85">VideoItem</text>
<text x="594.0" y="332.7" text-anchor="start" dominant-baseline="middle" transform="rotate(-28.7 594.0 332.7)" font-size="10" font-weight="600" fill="#1D4ED8" opacity="0.85">VideoRow</text>
<text x="608.2" y="363.7" text-anchor="start" dominant-baseline="middle" transform="rotate(-20.7 608.2 363.7)" font-size="10" font-weight="600" fill="#B91C1C" opacity="0.85">MainStoreFactory</text>
<text x="616.4" y="389.5" text-anchor="start" dominant-baseline="middle" transform="rotate(-14.4 616.4 389.5)" font-size="10" font-weight="600" fill="#1D4ED8" opacity="0.85">MainStore</text>
<text x="621.6" y="415.9" text-anchor="start" dominant-baseline="middle" transform="rotate(-8.0 621.6 415.9)" font-size="10" font-weight="600" fill="#B91C1C" opacity="0.85">MainComponent</text>
<text x="624.0" y="451.8" text-anchor="start" dominant-baseline="middle" transform="rotate(0.4 624.0 451.8)" font-size="10" font-weight="600" fill="#B91C1C" opacity="0.85">MainScreen</text>
<text x="622.7" y="475.1" text-anchor="start" dominant-baseline="middle" transform="rotate(5.9 622.7 475.1)" font-size="10" font-weight="600" fill="#60A5FA" opacity="0.85">CategoryState</text>
<text x="619.2" y="498.3" text-anchor="start" dominant-baseline="middle" transform="rotate(11.4 619.2 498.3)" font-size="10" font-weight="600" fill="#B91C1C" opacity="0.85">PokemonLoadingItem</text>
<text x="612.4" y="524.4" text-anchor="start" dominant-baseline="middle" transform="rotate(17.7 612.4 524.4)" font-size="10" font-weight="600" fill="#1D4ED8" opacity="0.85">PokedexContent</text>
<text x="606.3" y="541.3" text-anchor="start" dominant-baseline="middle" transform="rotate(22.0 606.3 541.3)" font-size="10" font-weight="600" fill="#1D4ED8" opacity="0.85">PokemonGrid</text>
<text x="598.9" y="557.7" text-anchor="start" dominant-baseline="middle" transform="rotate(26.2 598.9 557.7)" font-size="10" font-weight="600" fill="#1D4ED8" opacity="0.85">PokemonItem</text>
<text x="585.7" y="581.2" text-anchor="start" dominant-baseline="middle" transform="rotate(32.5 585.7 581.2)" font-size="10" font-weight="600" fill="#B91C1C" opacity="0.85">PokedexStoreFacto.</text>
<text x="570.0" y="603.1" text-anchor="start" dominant-baseline="middle" transform="rotate(38.9 570.0 603.1)" font-size="10" font-weight="600" fill="#1D4ED8" opacity="0.85">PokedexStore</text>
<text x="551.9" y="623.2" text-anchor="start" dominant-baseline="middle" transform="rotate(45.2 551.9 623.2)" font-size="10" font-weight="600" fill="#B91C1C" opacity="0.85">PokedexComponent</text>
<text x="531.7" y="641.1" text-anchor="start" dominant-baseline="middle" transform="rotate(51.5 531.7 641.1)" font-size="10" font-weight="600" fill="#1D4ED8" opacity="0.85">PokedexScreen</text>
<text x="509.7" y="656.7" text-anchor="start" dominant-baseline="middle" transform="rotate(57.9 509.7 656.7)" font-size="10" font-weight="600" fill="#B91C1C" opacity="0.85">FavoriteStoreFact.</text>
<text x="486.1" y="669.7" text-anchor="start" dominant-baseline="middle" transform="rotate(64.2 486.1 669.7)" font-size="10" font-weight="600" fill="#1D4ED8" opacity="0.85">FavoriteStore</text>
<text x="461.2" y="680.1" text-anchor="start" dominant-baseline="middle" transform="rotate(70.6 461.2 680.1)" font-size="10" font-weight="600" fill="#B91C1C" opacity="0.85">FavoriteComponent</text>
<text x="435.3" y="687.7" text-anchor="start" dominant-baseline="middle" transform="rotate(76.9 435.3 687.7)" font-size="10" font-weight="600" fill="#1D4ED8" opacity="0.85">FavoriteScreen</text>
<text x="417.6" y="691.1" text-anchor="start" dominant-baseline="middle" transform="rotate(81.1 417.6 691.1)" font-size="10" font-weight="600" fill="#1D4ED8" opacity="0.85">FavoriteContent</text>
<text x="399.8" y="693.2" text-anchor="start" dominant-baseline="middle" transform="rotate(85.4 399.8 693.2)" font-size="10" font-weight="600" fill="#1D4ED8" opacity="0.85">RootComponent</text>
<text x="381.8" y="694.0" text-anchor="start" dominant-baseline="middle" transform="rotate(89.6 381.8 694.0)" font-size="10" font-weight="600" fill="#1D4ED8" opacity="0.85">RootContent</text>
<text x="367.4" y="693.7" text-anchor="end" dominant-baseline="middle" transform="rotate(273.0 367.4 693.7)" font-size="10" font-weight="600" fill="#60A5FA" opacity="0.85">PokemonAbilityUti.</text>
<text x="237.9" y="608.7" text-anchor="middle" dominant-baseline="middle" transform="rotate(311.8 237.9 608.7)" font-size="11" font-weight="700" fill="#FFFFFF">core</text>
<text x="344.1" y="691.4" text-anchor="end" dominant-baseline="middle" transform="rotate(278.5 344.1 691.4)" font-size="10" font-weight="600" fill="#B91C1C" opacity="0.85">HttpClient</text>
<text x="309.1" y="683.5" text-anchor="end" dominant-baseline="middle" transform="rotate(286.9 309.1 683.5)" font-size="10" font-weight="600" fill="#B91C1C" opacity="0.85">ErrorHandler</text>
<text x="275.5" y="670.5" text-anchor="end" dominant-baseline="middle" transform="rotate(295.4 275.5 670.5)" font-size="10" font-weight="600" fill="#B91C1C" opacity="0.85">PokemonResponse</text>
<text x="251.8" y="657.6" text-anchor="end" dominant-baseline="middle" transform="rotate(301.7 251.8 657.6)" font-size="10" font-weight="600" fill="#1D4ED8" opacity="0.85">PokemonClient</text>
<text x="236.9" y="647.6" text-anchor="end" dominant-baseline="middle" transform="rotate(305.9 236.9 647.6)" font-size="10" font-weight="600" fill="#1D4ED8" opacity="0.85">NetworkModule</text>
<text x="215.9" y="630.6" text-anchor="end" dominant-baseline="middle" transform="rotate(312.3 215.9 630.6)" font-size="10" font-weight="600" fill="#B91C1C" opacity="0.85">PokemonDao</text>
<text x="191.2" y="604.5" text-anchor="end" dominant-baseline="middle" transform="rotate(320.7 191.2 604.5)" font-size="10" font-weight="600" fill="#B91C1C" opacity="0.85">PokemonInfoDao</text>
<text x="175.3" y="582.7" text-anchor="end" dominant-baseline="middle" transform="rotate(327.0 175.3 582.7)" font-size="10" font-weight="600" fill="#1D4ED8" opacity="0.85">DatabaseModule</text>
<text x="161.9" y="559.3" text-anchor="end" dominant-baseline="middle" transform="rotate(333.4 161.9 559.3)" font-size="10" font-weight="600" fill="#B91C1C" opacity="0.85">Pokemon</text>
<text x="148.2" y="526.1" text-anchor="end" dominant-baseline="middle" transform="rotate(341.8 148.2 526.1)" font-size="10" font-weight="600" fill="#B91C1C" opacity="0.85">PokemonInfo</text>
<text x="141.6" y="501.8" text-anchor="end" dominant-baseline="middle" transform="rotate(347.7 141.6 501.8)" font-size="10" font-weight="600" fill="#60A5FA" opacity="0.85">AppModule</text>
<text x="167.6" y="434.3" text-anchor="middle" dominant-baseline="middle" transform="rotate(364.2 167.6 434.3)" font-size="11" font-weight="700" fill="#FFFFFF">data</text>
<text x="137.5" y="476.9" text-anchor="end" dominant-baseline="middle" transform="rotate(353.7 137.5 476.9)" font-size="10" font-weight="600" fill="#B91C1C" opacity="0.85">PokemonRepository</text>
<text x="136.2" y="441.0" text-anchor="end" dominant-baseline="middle" transform="rotate(362.1 136.2 441.0)" font-size="10" font-weight="600" fill="#B91C1C" opacity="0.85">PokemonRepository.</text>
<text x="140.1" y="405.3" text-anchor="end" dominant-baseline="middle" transform="rotate(370.6 140.1 405.3)" font-size="10" font-weight="600" fill="#B91C1C" opacity="0.85">Mappers</text>
<text x="146.5" y="379.1" text-anchor="end" dominant-baseline="middle" transform="rotate(376.9 146.5 379.1)" font-size="10" font-weight="600" fill="#1D4ED8" opacity="0.85">DataModule</text>
<text x="310.4" y="401.2" text-anchor="middle" dominant-baseline="middle" transform="rotate(395.1 310.4 401.2)" font-size="11" font-weight="700" fill="#FFFFFF">ios.</text>
<text x="284.2" y="382.8" text-anchor="middle" dominant-baseline="middle" transform="rotate(395.1 284.2 382.8)" font-size="11" font-weight="700" fill="#FFFFFF">com</text>
<text x="258.1" y="364.4" text-anchor="middle" dominant-baseline="middle" transform="rotate(395.1 258.1 364.4)" font-size="11" font-weight="700" fill="#FFFFFF">moc.</text>
<text x="231.9" y="346.0" text-anchor="middle" dominant-baseline="middle" transform="rotate(395.1 231.9 346.0)" font-size="11" font-weight="700" fill="#FFFFFF">pok.</text>
<text x="195.8" y="290.0" text-anchor="end" dominant-baseline="middle" transform="rotate(401.0 195.8 290.0)" font-size="10" font-weight="600" fill="#60A5FA" opacity="0.85">ContentView</text>
<text x="323.8" y="386.2" text-anchor="middle" dominant-baseline="middle" transform="rotate(408.6 323.8 386.2)" font-size="11" font-weight="700" fill="#FFFFFF">and.</text>
<text x="302.6" y="362.2" text-anchor="middle" dominant-baseline="middle" transform="rotate(408.6 302.6 362.2)" font-size="11" font-weight="700" fill="#FFFFFF">com</text>
<text x="281.4" y="338.2" text-anchor="middle" dominant-baseline="middle" transform="rotate(408.6 281.4 338.2)" font-size="11" font-weight="700" fill="#FFFFFF">moc.</text>
<text x="260.3" y="314.2" text-anchor="middle" dominant-baseline="middle" transform="rotate(408.6 260.3 314.2)" font-size="11" font-weight="700" fill="#FFFFFF">pok.</text>
<text x="232.5" y="255.6" text-anchor="end" dominant-baseline="middle" transform="rotate(412.8 232.5 255.6)" font-size="10" font-weight="600" fill="#60A5FA" opacity="0.85">ContentView</text>
<text x="338.0" y="376.1" text-anchor="middle" dominant-baseline="middle" transform="rotate(420.4 338.0 376.1)" font-size="11" font-weight="700" fill="#FFFFFF">des.</text>
<text x="322.2" y="348.2" text-anchor="middle" dominant-baseline="middle" transform="rotate(420.4 322.2 348.2)" font-size="11" font-weight="700" fill="#FFFFFF">com.</text>
<text x="372.8" y="206.1" text-anchor="end" dominant-baseline="middle" transform="rotate(448.3 372.8 206.1)" font-size="10" font-weight="600" fill="#60A5FA" opacity="0.85">MainActivity</text>
<circle cx="380.0" cy="450.0" r="70" fill="#F5F4F0" stroke="#D8D6D0"/><text x="380.0" y="454.0" text-anchor="middle" font-size="13" font-weight="700" fill="#64748B">src</text>
<rect x="20" y="850" width="14" height="14" rx="3" fill="#B91C1C"/><text x="40" y="861" fill="#475569" font-size="11">Directo</text>
<rect x="164" y="850" width="14" height="14" rx="3" fill="#1D4ED8"/><text x="184" y="861" fill="#475569" font-size="11">Transitivo d1</text>
<rect x="308" y="850" width="14" height="14" rx="3" fill="#60A5FA"/><text x="328" y="861" fill="#475569" font-size="11">Transitivo d2+</text>
<rect x="452" y="850" width="14" height="14" rx="3" fill="#94A3B8"/><text x="472" y="861" fill="#475569" font-size="11">Sin impacto</text>
<rect x="596" y="850" width="14" height="14" rx="3" fill="none" stroke="#64748B" stroke-width="1.5" stroke-dasharray="3,2"/><text x="616" y="861" fill="#475569" font-size="11">Expect/Actual</text>
</svg>