<svg xmlns="http://www.w3.org/2000/svg" viewBox="0 0 760 880" width="760" height="880" font-family="system-ui,sans-serif">
<rect width="100%" height="100%" fill="#F5F4F0"/>
<text x="380.0" y="30" text-anchor="middle" fill="#1E293B" font-size="18" font-weight="700">KMP Impact . org.jetbrains.kotlinx</text>
<text x="380.0" y="52" text-anchor="middle" fill="#64748b" font-size="12">1.8.0 -&gt; 1.11.0 . 90 archivos</text>
<path d="M 380.00 350.00 A 100.00 100.00 0 1 1 303.71 385.35 L 326.60 404.74 A 70.00 70.00 0 1 0 380.00 380.00 Z" fill="#B91C1C" fill-opacity="1"/>
<path d="M 380.00 318.00 A 132.00 132.00 0 1 1 279.30 364.66 L 302.19 384.05 A 102.00 102.00 0 1 0 380.00 348.00 Z" fill="#B91C1C" fill-opacity="1"/>
<path d="M 380.00 286.00 A 164.00 164.00 0 1 1 254.89 343.97 L 277.77 363.36 A 134.00 134.00 0 1 0 380.00 316.00 Z" fill="#B91C1C" fill-opacity="1"/>
<path d="M 380.00 254.00 A 196.00 196.00 0 1 1 230.48 323.28 L 253.36 342.67 A 166.00 166.00 0 1 0 380.00 284.00 Z" fill="#B91C1C" fill-opacity="1"/>
<path d="M 380.00 222.00 A 228.00 228.00 0 1 1 352.59 676.35 L 356.19 646.56 A 198.00 198.00 0 1 0 380.00 252.00 Z" fill="#B91C1C" fill-opacity="1"/>
<path d="M 352.59 676.35 A 228.00 228.00 0 0 1 152.05 454.58 L 182.04 453.98 A 198.00 198.00 0 0 0 356.19 646.56 Z" fill="#B91C1C" fill-opacity="1"/>
<path d="M 152.05 454.58 A 228.00 228.00 0 0 1 184.72 332.32 L 210.41 347.80 A 198.00 198.00 0 0 0 182.04 453.98 Z" fill="#B91C1C" fill-opacity="1"/>
<path d="M 184.72 332.32 A 228.00 228.00 0 0 1 206.06 302.59 L 228.95 321.98 A 198.00 198.00 0 0 0 210.41 347.80 Z" fill="#B91C1C" fill-opacity="1"/>
<path d="M 303.71 385.35 A 100.00 100.00 0 0 1 325.32 366.27 L 341.73 391.39 A 70.00 70.00 0 0 0 326.60 404.74 Z" fill="#B91C1C" fill-opacity="1"/>
<path d="M 279.30 364.66 A 132.00 132.00 0 0 1 307.83 339.48 L 324.23 364.60 A 102.00 102.00 0 0 0 302.19 384.05 Z" fill="#B91C1C" fill-opacity="1"/>
<path d="M 254.89 343.97 A 164.00 164.00 0 0 1 290.33 312.69 L 306.73 337.80 A 134.00 134.00 0 0 0 277.77 363.36 Z" fill="#B91C1C" fill-opacity="1"/>
<path d="M 230.48 323.28 A 196.00 196.00 0 0 1 272.83 285.89 L 289.24 311.01 A 166.00 166.00 0 0 0 253.36 342.67 Z" fill="#B91C1C" fill-opacity="1"/>
<path d="M 206.06 302.59 A 228.00 228.00 0 0 1 231.89 276.66 L 251.38 299.47 A 198.00 198.00 0 0 0 228.95 321.98 Z" fill="#B91C1C" fill-opacity="1"/>
<path d="M 231.89 276.66 A 228.00 228.00 0 0 1 243.33 267.50 L 261.31 291.51 A 198.00 198.00 0 0 0 251.38 299.47 Z" fill="#60A5FA" fill-opacity="1"/>
<path d="M 243.33 267.50 A 228.00 228.00 0 0 1 255.34 259.10 L 271.74 284.22 A 198.00 198.00 0 0 0 261.31 291.51 Z" fill="#60A5FA" fill-opacity="1"/>
<path d="M 325.32 366.27 A 100.00 100.00 0 0 1 345.38 356.18 L 355.77 384.33 A 70.00 70.00 0 0 0 341.73 391.39 Z" fill="#B91C1C" fill-opacity="1"/>
<path d="M 307.83 339.48 A 132.00 132.00 0 0 1 334.30 326.16 L 344.69 354.31 A 102.00 102.00 0 0 0 324.23 364.60 Z" fill="#B91C1C" fill-opacity="1"/>
<path d="M 290.33 312.69 A 164.00 164.00 0 0 1 323.22 296.14 L 333.61 324.29 A 134.00 134.00 0 0 0 306.73 337.80 Z" fill="#B91C1C" fill-opacity="1"/>
<path d="M 272.83 285.89 A 196.00 196.00 0 0 1 312.14 266.12 L 322.53 294.27 A 166.00 166.00 0 0 0 289.24 311.01 Z" fill="#B91C1C" fill-opacity="1"/>
<path d="M 255.34 259.10 A 228.00 228.00 0 0 1 287.49 241.61 L 299.66 269.03 A 198.00 198.00 0 0 0 271.74 284.22 Z" fill="#B91C1C" fill-opacity="1"/>
<path d="M 287.49 241.61 A 228.00 228.00 0 0 1 301.06 236.10 L 311.45 264.24 A 198.00 198.00 0 0 0 299.66 269.03 Z" fill="#60A5FA" fill-opacity="1"/>
<path d="M 345.38 356.18 A 100.00 100.00 0 0 1 367.18 350.83 L 371.03 380.58 A 70.00 70.00 0 0 0 355.77 384.33 Z" fill="#B91C1C" fill-opacity="1"/>
<path d="M 334.30 326.16 A 132.00 132.00 0 0 1 363.08 319.09 L 366.92 348.84 A 102.00 102.00 0 0 0 344.69 354.31 Z" fill="#B91C1C" fill-opacity="1"/>
<path d="M 323.22 296.14 A 164.00 164.00 0 0 1 348.57 289.04 L 354.32 318.48 A 134.00 134.00 0 0 0 333.61 324.29 Z" fill="#B91C1C" fill-opacity="1"/>
<path d="M 348.57 289.04 A 164.00 164.00 0 0 1 358.97 287.35 L 362.82 317.11 A 134.00 134.00 0 0 0 354.32 318.48 Z" fill="#60A5FA" fill-opacity="1"/>
<path d="M 342.44 257.63 A 196.00 196.00 0 0 1 354.87 255.62 L 358.72 285.37 A 166.00 166.00 0 0 0 348.19 287.08 Z" fill="#60A5FA" fill-opacity="1"/>
<path d="M 367.18 350.83 A 100.00 100.00 0 0 1 373.58 350.21 L 375.50 380.14 A 70.00 70.00 0 0 0 371.03 380.58 Z" fill="#60A5FA" fill-opacity="1"/>
<path d="M 363.08 319.09 A 132.00 132.00 0 0 1 371.52 318.27 L 373.45 348.21 A 102.00 102.00 0 0 0 366.92 348.84 Z" fill="#60A5FA" fill-opacity="1"/>
<path d="M 373.58 350.21 A 100.00 100.00 0 0 1 380.00 350.00 L 380.00 380.00 A 70.00 70.00 0 0 0 375.50 380.14 Z" fill="#60A5FA" fill-opacity="1"/>
<path d="M 371.52 318.27 A 132.00 132.00 0 0 1 380.00 318.00 L 380.00 348.00 A 102.00 102.00 0 0 0 373.45 348.21 Z" fill="#60A5FA" fill-opacity="1"/>
<path d="M 369.47 286.34 A 164.00 164.00 0 0 1 380.00 286.00 L 380.00 316.00 A 134.00 134.00 0 0 0 371.39 316.28 Z" fill="#60A5FA" fill-opacity="1"/>
<path d="M 367.41 254.40 A 196.00 196.00 0 0 1 380.00 254.00 L 380.00 284.00 A 166.00 166.00 0 0 0 369.34 284.34 Z" fill="#60A5FA" fill-opacity="1"/>
<path d="M 365.35 222.47 A 228.00 228.00 0 0 1 380.00 222.00 L 380.00 252.00 A 198.00 198.00 0 0 0 367.28 252.41 Z" fill="#60A5FA" fill-opacity="1"/>
<text x="415.7" y="527.1" text-anchor="middle" dominant-baseline="middle" transform="rotate(65.1 415.7 527.1)" font-size="11" font-weight="700" fill="#FFFFFF">commonMain</text>
<text x="429.2" y="556.2" text-anchor="middle" dominant-baseline="middle" transform="rotate(65.1 429.2 556.2)" font-size="11" font-weight="700" fill="#FFFFFF">com</text>
<text x="442.6" y="585.2" text-anchor="middle" dominant-baseline="middle" transform="rotate(65.1 442.6 585.2)" font-size="11" font-weight="700" fill="#FFFFFF">mocoding</text>
<text x="456.1" y="614.2" text-anchor="middle" dominant-baseline="middle" transform="rotate(65.1 456.1 614.2)" font-size="11" font-weight="700" fill="#FFFFFF">pokedex</text>
<text x="592.6" y="462.8" text-anchor="middle" dominant-baseline="middle" transform="rotate(3.5 592.6 462.8)" font-size="11" font-weight="700" fill="#FFFFFF">ui</text>
<text x="389.8" y="206.2" text-anchor="start" dominant-baseline="middle" transform="rotate(-87.7 389.8 206.2)" font-size="10" font-weight="600" fill="#1D4ED8" opacity="0.85">AbilityRow</text>
<text x="409.3" y="207.8" text-anchor="start" dominant-baseline="middle" transform="rotate(-83.1 409.3 207.8)" font-size="10" font-weight="600" fill="#1D4ED8" opacity="0.85">DetailsContent</text>
<text x="428.7" y="210.9" text-anchor="start" dominant-baseline="middle" transform="rotate(-78.5 428.7 210.9)" font-size="10" font-weight="600" fill="#1D4ED8" opacity="0.85">PokemonInfos</text>
<text x="447.7" y="215.6" text-anchor="start" dominant-baseline="middle" transform="rotate(-73.9 447.7 215.6)" font-size="10" font-weight="600" fill="#1D4ED8" opacity="0.85">PokemonStatItem</text>
<text x="466.3" y="221.8" text-anchor="start" dominant-baseline="middle" transform="rotate(-69.3 466.3 221.8)" font-size="10" font-weight="600" fill="#1D4ED8" opacity="0.85">PokemonStats</text>
<text x="493.1" y="233.8" text-anchor="start" dominant-baseline="middle" transform="rotate(-62.4 493.1 233.8)" font-size="10" font-weight="600" fill="#B91C1C" opacity="0.85">DetailsStoreFacto.</text>
<text x="518.3" y="249.0" text-anchor="start" dominant-baseline="middle" transform="rotate(-55.5 518.3 249.0)" font-size="10" font-weight="600" fill="#1D4ED8" opacity="0.85">DetailsStore</text>
<text x="541.5" y="267.1" text-anchor="start" dominant-baseline="middle" transform="rotate(-48.6 541.5 267.1)" font-size="10" font-weight="600" fill="#B91C1C" opacity="0.85">DetailsComponent</text>
<text x="562.3" y="287.8" text-anchor="start" dominant-baseline="middle" transform="rotate(-41.7 562.3 287.8)" font-size="10" font-weight="600" fill="#1D4ED8" opacity="0.85">DetailsScreen</text>
<text x="574.7" y="303.0" text-anchor="start" dominant-baseline="middle" transform="rotate(-37.1 574.7 303.0)" font-size="10" font-weight="600" fill="#1D4ED8" opacity="0.85">MainContent</text>
<text x="585.9" y="319.1" text-anchor="start" dominant-baseline="middle" transform="rotate(-32.5 585.9 319.1)" font-size="10" font-weight="600" fill="#1D4ED8" opacity="0.85">VideoItem</text>
<text x="595.7" y="336.0" text-anchor="start" dominant-baseline="middle" transform="rotate(-27.9 595.7 336.0)" font-size="10" font-weight="600" fill="#1D4ED8" opacity="0.85">VideoRow</text>
<text x="610.6" y="370.1" text-anchor="start" dominant-baseline="middle" transform="rotate(-19.1 610.6 370.1)" font-size="10" font-weight="600" fill="#B91C1C" opacity="0.85">MainStoreFactory</text>
<text x="618.5" y="398.4" text-anchor="start" dominant-baseline="middle" transform="rotate(-12.2 618.5 398.4)" font-size="10" font-weight="600" fill="#1D4ED8" opacity="0.85">MainStore</text>
<text x="623.0" y="427.5" text-anchor="start" dominant-baseline="middle" transform="rotate(-5.3 623.0 427.5)" font-size="10" font-weight="600" fill="#B91C1C" opacity="0.85">MainComponent</text>
<text x="623.4" y="466.7" text-anchor="start" dominant-baseline="middle" transform="rotate(3.9 623.4 466.7)" font-size="10" font-weight="600" fill="#B91C1C" opacity="0.85">MainScreen</text>
<text x="620.4" y="491.9" text-anchor="start" dominant-baseline="middle" transform="rotate(9.9 620.4 491.9)" font-size="10" font-weight="600" fill="#60A5FA" opacity="0.85">CategoryState</text>
<text x="617.2" y="507.3" text-anchor="start" dominant-baseline="middle" transform="rotate(13.6 617.2 507.3)" font-size="10" font-weight="600" fill="#1D4ED8" opacity="0.85">PokedexContent</text>
<text x="611.8" y="526.1" text-anchor="start" dominant-baseline="middle" transform="rotate(18.2 611.8 526.1)" font-size="10" font-weight="600" fill="#1D4ED8" opacity="0.85">PokemonGrid</text>
<text x="605.0" y="544.5" text-anchor="start" dominant-baseline="middle" transform="rotate(22.8 605.0 544.5)" font-size="10" font-weight="600" fill="#1D4ED8" opacity="0.85">PokemonItem</text>
<text x="592.0" y="570.9" text-anchor="start" dominant-baseline="middle" transform="rotate(29.7 592.0 570.9)" font-size="10" font-weight="600" fill="#B91C1C" opacity="0.85">PokedexStoreFacto.</text>
<text x="575.9" y="595.5" text-anchor="start" dominant-baseline="middle" transform="rotate(36.6 575.9 595.5)" font-size="10" font-weight="600" fill="#1D4ED8" opacity="0.85">PokedexStore</text>
<text x="557.0" y="618.0" text-anchor="start" dominant-baseline="middle" transform="rotate(43.5 557.0 618.0)" font-size="10" font-weight="600" fill="#B91C1C" opacity="0.85">PokedexComponent</text>
<text x="535.5" y="638.0" text-anchor="start" dominant-baseline="middle" transform="rotate(50.4 535.5 638.0)" font-size="10" font-weight="600" fill="#1D4ED8" opacity="0.85">PokedexScreen</text>
<text x="511.8" y="655.4" text-anchor="start" dominant-baseline="middle" transform="rotate(57.3 511.8 655.4)" font-size="10" font-weight="600" fill="#B91C1C" opacity="0.85">FavoriteStoreFact.</text>
<text x="486.1" y="669.7" text-anchor="start" dominant-baseline="middle" transform="rotate(64.2 486.1 669.7)" font-size="10" font-weight="600" fill="#1D4ED8" opacity="0.85">FavoriteStore</text>
<text x="458.9" y="680.9" text-anchor="start" dominant-baseline="middle" transform="rotate(71.1 458.9 680.9)" font-size="10" font-weight="600" fill="#B91C1C" opacity="0.85">FavoriteComponent</text>
<text x="430.6" y="688.7" text-anchor="start" dominant-baseline="middle" transform="rotate(78.0 430.6 688.7)" font-size="10" font-weight="600" fill="#1D4ED8" opacity="0.85">FavoriteScreen</text>
<text x="411.3" y="692.0" text-anchor="start" dominant-baseline="middle" transform="rotate(82.6 411.3 692.0)" font-size="10" font-weight="600" fill="#1D4ED8" opacity="0.85">FavoriteContent</text>
<text x="391.8" y="693.7" text-anchor="start" dominant-baseline="middle" transform="rotate(87.2 391.8 693.7)" font-size="10" font-weight="600" fill="#1D4ED8" opacity="0.85">RootComponent</text>
<text x="372.2" y="693.9" text-anchor="end" dominant-baseline="middle" transform="rotate(271.8 372.2 693.9)" font-size="10" font-weight="600" fill="#1D4ED8" opacity="0.85">RootContent</text>
<text x="356.5" y="692.9" text-anchor="end" dominant-baseline="middle" transform="rotate(275.5 356.5 692.9)" font-size="10" font-weight="600" fill="#60A5FA" opacity="0.85">PokemonAbilityUti.</text>
<text x="222.0" y="592.9" text-anchor="middle" dominant-baseline="middle" transform="rotate(317.9 222.0 592.9)" font-size="11" font-weight="700" fill="#FFFFFF">core</text>
<text x="331.3" y="689.1" text-anchor="end" dominant-baseline="middle" transform="rotate(281.5 331.3 689.1)" font-size="10" font-weight="600" fill="#B91C1C" opacity="0.85">HttpClient</text>
<text x="293.7" y="678.2" text-anchor="end" dominant-baseline="middle" transform="rotate(290.7 293.7 678.2)" font-size="10" font-weight="600" fill="#B91C1C" opacity="0.85">ErrorHandler</text>
<text x="258.3" y="661.5" text-anchor="end" dominant-baseline="middle" transform="rotate(299.9 258.3 661.5)" font-size="10" font-weight="600" fill="#B91C1C" opacity="0.85">PokemonResponse</text>
<text x="233.7" y="645.3" text-anchor="end" dominant-baseline="middle" transform="rotate(306.8 233.7 645.3)" font-size="10" font-weight="600" fill="#1D4ED8" opacity="0.85">PokemonClient</text>
<text x="218.5" y="632.9" text-anchor="end" dominant-baseline="middle" transform="rotate(311.4 218.5 632.9)" font-size="10" font-weight="600" fill="#1D4ED8" opacity="0.85">NetworkModule</text>
<text x="197.7" y="612.2" text-anchor="end" dominant-baseline="middle" transform="rotate(318.3 197.7 612.2)" font-size="10" font-weight="600" fill="#B91C1C" opacity="0.85">PokemonDao</text>
<text x="174.1" y="580.9" text-anchor="end" dominant-baseline="middle" transform="rotate(327.5 174.1 580.9)" font-size="10" font-weight="600" fill="#B91C1C" opacity="0.85">PokemonInfoDao</text>
<text x="159.9" y="555.2" text-anchor="end" dominant-baseline="middle" transform="rotate(334.5 159.9 555.2)" font-size="10" font-weight="600" fill="#1D4ED8" opacity="0.85">DatabaseModule</text>
<text x="148.8" y="528.0" text-anchor="end" dominant-baseline="middle" transform="rotate(341.4 148.8 528.0)" font-size="10" font-weight="600" fill="#B91C1C" opacity="0.85">Pokemon</text>
<text x="139.3" y="490.0" text-anchor="end" dominant-baseline="middle" transform="rotate(350.6 139.3 490.0)" font-size="10" font-weight="600" fill="#B91C1C" opacity="0.85">PokemonInfo</text>
<text x="136.3" y="462.7" text-anchor="end" dominant-baseline="middle" transform="rotate(357.0 136.3 462.7)" font-size="10" font-weight="600" fill="#60A5FA" opacity="0.85">AppModule</text>
<text x="174.2" y="395.0" text-anchor="middle" dominant-baseline="middle" transform="rotate(375.0 174.2 395.0)" font-size="11" font-weight="700" fill="#FFFFFF">data</text>
<text x="136.4" y="435.3" text-anchor="end" dominant-baseline="middle" transform="rotate(363.5 136.4 435.3)" font-size="10" font-weight="600" fill="#B91C1C" opacity="0.85">PokemonRepository</text>
<text x="141.9" y="396.5" text-anchor="end" dominant-baseline="middle" transform="rotate(372.7 141.9 396.5)" font-size="10" font-weight="600" fill="#B91C1C" opacity="0.85">PokemonRepository.</text>
<text x="153.6" y="359.1" text-anchor="end" dominant-baseline="middle" transform="rotate(381.9 153.6 359.1)" font-size="10" font-weight="600" fill="#B91C1C" opacity="0.85">Mappers</text>
<text x="166.1" y="332.6" text-anchor="end" dominant-baseline="middle" transform="rotate(388.8 166.1 332.6)" font-size="10" font-weight="600" fill="#1D4ED8" opacity="0.85">DataModule</text>
<text x="323.8" y="386.3" text-anchor="middle" dominant-baseline="middle" transform="rotate(408.6 323.8 386.3)" font-size="11" font-weight="700" fill="#FFFFFF">ios.</text>
<text x="302.6" y="362.3" text-anchor="middle" dominant-baseline="middle" transform="rotate(408.6 302.6 362.3)" font-size="11" font-weight="700" fill="#FFFFFF">com</text>
<text x="281.4" y="338.3" text-anchor="middle" dominant-baseline="middle" transform="rotate(408.6 281.4 338.3)" font-size="11" font-weight="700" fill="#FFFFFF">moc.</text>
<text x="260.2" y="314.3" text-anchor="middle" dominant-baseline="middle" transform="rotate(408.6 260.2 314.3)" font-size="11" font-weight="700" fill="#FFFFFF">pok.</text>
<text x="240.1" y="250.1" text-anchor="end" dominant-baseline="middle" transform="rotate(415.0 240.1 250.1)" font-size="10" font-weight="600" fill="#60A5FA" opacity="0.85">ContentView</text>
<text x="341.8" y="374.1" text-anchor="middle" dominant-baseline="middle" transform="rotate(423.3 341.8 374.1)" font-size="11" font-weight="700" fill="#FFFFFF">and.</text>
<text x="327.4" y="345.5" text-anchor="middle" dominant-baseline="middle" transform="rotate(423.3 327.4 345.5)" font-size="11" font-weight="700" fill="#FFFFFF">com</text>
<text x="313.0" y="316.9" text-anchor="middle" dominant-baseline="middle" transform="rotate(423.3 313.0 316.9)" font-size="11" font-weight="700" fill="#FFFFFF">moc.</text>
<text x="298.7" y="288.3" text-anchor="middle" dominant-baseline="middle" transform="rotate(423.3 298.7 288.3)" font-size="11" font-weight="700" fill="#FFFFFF">pok.</text>
<text x="288.2" y="223.9" text-anchor="end" dominant-baseline="middle" transform="rotate(427.9 288.2 223.9)" font-size="10" font-weight="600" fill="#60A5FA" opacity="0.85">ContentView</text>
<text x="359.7" y="367.5" text-anchor="middle" dominant-baseline="middle" transform="rotate(436.2 359.7 367.5)" font-size="11" font-weight="700" fill="#FFFFFF">des.</text>
<text x="352.1" y="336.4" text-anchor="middle" dominant-baseline="middle" transform="rotate(436.2 352.1 336.4)" font-size="11" font-weight="700" fill="#FFFFFF">com.</text>
<text x="372.2" y="206.1" text-anchor="end" dominant-baseline="middle" transform="rotate(448.2 372.2 206.1)" font-size="10" font-weight="600" fill="#60A5FA" opacity="0.85">MainActivity</text>
<circle cx="380.0" cy="450.0" r="70" fill="#F5F4F0" stroke="#D8D6D0"/><text x="380.0" y="454.0" text-anchor="middle" font-size="13" font-weight="700" fill="#64748B">src</text>
<rect x="20" y="850" width="14" height="14" rx="3" fill="#B91C1C"/><text x="40" y="861" fill="#475569" font-size="11">Directo</text>
<rect x="164" y="850" width="14" height="14" rx="3" fill="#1D4ED8"/><text x="184" y="861" fill="#475569" font-size="11">Transitivo d1</text>
<rect x="308" y="850" width="14" height="14" rx="3" fill="#60A5FA"/><text x="328" y="861" fill="#475569" font-size="11">Transitivo d2+</text>
<rect x="452" y="850" width="14" height="14" rx="3" fill="#94A3B8"/><text x="472" y="861" fill="#475569" font-size="11">Sin impacto</text>
<rect x="596" y="850" width="14" height="14" rx="3" fill="none" stroke="#64748B" stroke-width="1.5" stroke-dasharray="3,2"/><text x="616" y="861" fill="#475569" font-size="11">Expect/Actual</text>
</svg>